<svg xmlns="http://www.w3.org/2000/svg" version="1.1" xmlns:xlink="http://www.w3.org/1999/xlink" xmlns:svgjs="http://svgjs.com/svgjs" width="15" height="15" x="0" y="0" viewBox="0 0 24 24" style="enable-background:new 0 0 512 512" xml:space="preserve" class=""><g><g><path d="m1.793 22.707a1 1 0 0 1 0-1.414l9.293-9.293-9.293-9.293a1 1 0 0 1 1.414-1.414l10 10a1 1 0 0 1 0 1.414l-10 10a1 1 0 0 1 -1.414 0z" fill="#000000" data-original="#000000" class=""></path><path d="m10.793 22.707a1 1 0 0 1 0-1.414l9.293-9.293-9.293-9.293a1 1 0 0 1 1.414-1.414l10 10a1 1 0 0 1 0 1.414l-10 10a1 1 0 0 1 -1.414 0z" fill="#000000" data-original="#000000" class=""></path></g></g></svg>